<svg width="28" height="28" fill="none" xmlns="http://www.w3.org/2000/svg"><g clip-path="url(#a)"><path d="M6 10H3c-1.09 0-2 .91-2 2v4c0 1.09.91 2 2 2h3l7.82 5.62c1.29.893 3.145-.047 3.18-1.62V6c.038-1.574-1.706-2.515-3-1.62L6 10z" fill="#fff" stroke="#000" stroke-linecap="round" stroke-linejoin="round"/><mask id="b" maskUnits="userSpaceOnUse" x="20" y="9" width="9" height="10" fill="#000"><path fill="#fff" d="M20 9H29V19H20z"/><path d="M24.097 15.002c-.816.702-1.355 1.409-1.617 2.121-.1.237-.202.414-.306.532-.426-.025-.639-.224-.639-.596 0-.548.61-1.379 1.832-2.492l.258-.242c-.713-1.07-1.07-1.892-1.07-2.465 0-.509.215-.763.645-.763.122 0 .21.052.263.156.058.104.102.34.135.709.046.57.292 1.173.736 1.81.991-.852 1.661-1.615 2.008-2.288.118-.215.21-.351.274-.408a.374.374 0 01.258-.086c.129 0 .249.05.36.15.114.1.172.227.172.381 0 .359-.87 1.34-2.61 2.944.597.766 1.235 1.34 1.912 1.724.082.046.16.095.236.145a.588.588 0 01-.15.564.525.525 0 01-.403.183c-.484 0-1.248-.693-2.294-2.079z"/></mask><path d="M24.097 15.002c-.816.702-1.355 1.409-1.617 2.121-.1.237-.202.414-.306.532-.426-.025-.639-.224-.639-.596 0-.548.61-1.379 1.832-2.492l.258-.242c-.713-1.07-1.07-1.892-1.07-2.465 0-.509.215-.763.645-.763.122 0 .21.052.263.156.058.104.102.34.135.709.046.57.292 1.173.736 1.81.991-.852 1.661-1.615 2.008-2.288.118-.215.21-.351.274-.408a.374.374 0 01.258-.086c.129 0 .249.05.36.15.114.1.172.227.172.381 0 .359-.87 1.34-2.61 2.944.597.766 1.235 1.34 1.912 1.724.082.046.16.095.236.145a.588.588 0 01-.15.564.525.525 0 01-.403.183c-.484 0-1.248-.693-2.294-2.079z" fill="#fff"/><path d="M24.097 15.002l.798-.602-.642-.851-.808.695.652.758zm-1.617 2.121l.921.391.01-.023.008-.023-.939-.345zm-.306.532l-.058.998.487.03.322-.368-.75-.66zm1.193-3.088l.674.739.01-.01-.684-.73zm.258-.242l.683.73.618-.58-.469-.704-.832.554zm-.162-3.072l-.888.46.006.011.007.012.875-.483zm.135.709l.996-.082v-.005l-.996.087zm.736 1.81l-.821.572.633.908.84-.722-.652-.758zm2.008-2.288l-.876-.482-.006.012-.006.011.888.459zm.892-.344l-.67.742.006.005.005.006.659-.753zm-2.439 3.325l-.677-.735-.678.624.567.726.788-.615zm1.912 1.724l-.492.87.492-.87zm.237.145l.914-.406-.118-.265-.241-.161-.555.832zm-.15.564l-.729-.685-.005.005-.005.006.739.674zm-3.349-2.654c-.895.769-1.564 1.61-1.903 2.535l1.877.689c.183-.5.592-1.073 1.33-1.708l-1.304-1.516zm-1.885 2.489c-.038.09-.071.156-.098.202-.027.047-.041.063-.039.06l1.503 1.32c.204-.233.356-.52.475-.8l-1.841-.782zm.673-.076c-.085-.005.017-.02.144.1.065.06.11.132.135.2a.322.322 0 01.023.102h-2c0 .382.116.822.478 1.16.34.317.762.415 1.103.434l.117-1.996zm.302.402c0 .058-.01-.068.264-.442.25-.34.654-.776 1.242-1.311l-1.348-1.478c-.634.578-1.145 1.115-1.506 1.605-.335.457-.652 1.02-.652 1.626h2zm1.516-1.763l.258-.241-1.368-1.46-.258.242 1.368 1.46zm.406-1.525a8.392 8.392 0 01-.717-1.263c-.15-.348-.184-.554-.184-.648h-2c0 .478.144.97.35 1.444.209.483.51 1.01.886 1.575l1.665-1.108zm-.901-1.911c0-.137.032-.054-.075.073a.501.501 0 01-.196.142c-.06.024-.096.022-.085.022v-2c-.417 0-.897.132-1.247.545-.322.382-.397.847-.397 1.218h2zm-.356.237a.7.7 0 01-.352-.1.72.72 0 01-.273-.285l1.777-.918a1.281 1.281 0 00-.485-.519 1.302 1.302 0 00-.667-.178v2zm-.612-.361a.615.615 0 01-.034-.07l-.008-.023s.005.015.011.051c.014.073.03.188.045.355l1.992-.174a5.734 5.734 0 00-.072-.553 1.876 1.876 0 00-.183-.552l-1.751.966zm.013.307c.065.798.402 1.568.912 2.3l1.641-1.143c-.378-.542-.532-.978-.56-1.32l-1.993.163zm2.384 2.488c1.03-.885 1.812-1.747 2.246-2.589l-1.777-.917c-.26.505-.817 1.168-1.772 1.989l1.303 1.517zm2.233-2.565c.052-.093.088-.153.112-.188l.012-.017c-.002.002-.022.028-.061.062l-1.33-1.495a1.76 1.76 0 00-.282.336 4.546 4.546 0 00-.203.338l1.752.964zm.063-.143a.634.634 0 01-.407.167v-2c-.29 0-.633.081-.922.338l1.329 1.495zm-.407.167a.521.521 0 01-.199-.04.396.396 0 01-.111-.068l1.34-1.484a1.526 1.526 0 00-1.03-.408v2zm-.299-.097a.503.503 0 01-.17-.372h2c0-.438-.178-.84-.513-1.133l-1.317 1.505zm-.17-.372a.694.694 0 01.04-.226c.002-.007-.006.013-.04.067-.07.108-.197.272-.4.5-.402.454-1.026 1.073-1.887 1.868l1.355 1.47c.879-.81 1.56-1.483 2.028-2.01.233-.263.433-.511.58-.738.074-.114.147-.241.205-.377.053-.126.12-.321.12-.553h-2zm-2.398 3.56c.66.844 1.392 1.516 2.208 1.978l.985-1.74c-.537-.305-1.08-.782-1.616-1.47l-1.577 1.231zm2.208 1.979c.063.035.12.07.174.106l1.11-1.664a4.81 4.81 0 00-.3-.184l-.984 1.742zm-.185-.32a.77.77 0 01-.064-.243v-.013h2a1.37 1.37 0 00-.108-.556l-1.828.812zm-.065-.256a.436.436 0 01.1-.271l1.457 1.37c.273-.29.443-.667.443-1.099h-2zm.09-.26a.478.478 0 01.336-.144v2c.453 0 .85-.19 1.141-.508l-1.477-1.348zm.336-.143c.11 0 .143.036.07-.005a1.951 1.951 0 01-.335-.256c-.315-.286-.724-.749-1.23-1.42l-1.597 1.204c.539.714 1.035 1.29 1.484 1.698.225.204.462.387.707.523.239.133.548.256.9.256v-2z" fill="#000" mask="url(#b)"/></g><defs><clipPath id="a"><path fill="#fff" d="M0 0H28V28H0z"/></clipPath></defs></svg>