<svg width="27" height="27" fill="none" xmlns="http://www.w3.org/2000/svg"><g clip-path="url(#a)"><path d="M26 19.875a15.161 15.161 0 002-7.374 15.161 15.161 0 00-2-7.375" fill="#fff"/><path d="M26 19.875a15.161 15.161 0 002-7.374 15.161 15.161 0 00-2-7.375" stroke="#000" stroke-linecap="round" stroke-linejoin="round"/><path d="M22.008 9.34a4.776 4.776 0 011 3.16 4.775 4.775 0 01-1 3.161" fill="#fff"/><path d="M22.008 9.34a4.776 4.776 0 011 3.16 4.775 4.775 0 01-1 3.161" stroke="#000" stroke-linecap="round" stroke-linejoin="round"/><path d="M7.002 8.287H4C2.91 8.287 2 9.246 2 10.394v4.214c0 1.147.911 2.107 2 2.107h3.002l7.823 5.92c1.29.941 3.146-.05 3.181-1.706V4.073c.038-1.658-1.706-2.65-3.001-1.707l-8.003 5.92z" fill="#fff" stroke="#000" stroke-linecap="round" stroke-linejoin="round"/></g><defs><clipPath id="a"><path fill="#fff" d="M0 0H27V27H0z"/></clipPath></defs></svg>